# xmcd
#
# Track frame offsets:
#	150
#	17897
#	28737
#	51850
#	63672
#	81712
#	99095
#	115062
#	131145
#	142820
#	165052
#
# Disc length: 2300 seconds
#
# Revision: 1
# Processed by: cddbd v1.4PL0 Copyright (c) Steve Scherf et al.
# Submitted via: audiograbber 1.80
#
DISCID=8d08fa0b
DTITLE=Dangerfield McNally - Extra Fine Vibe
DYEAR=1900
DGENRE=
TTITLE0=To Be A Good Lover
TTITLE1=Taylor Your Boogie
TTITLE2=Talk To Somebody
TTITLE3=The Catalogue
TTITLE4=Love's Pain
TTITLE5=Checkout Stand
TTITLE6=Playing This Game
TTITLE7=Austin
TTITLE8=Reintjes Interlude (Bashfords Peace)
TTITLE9=Extra Fine
TTITLE10=Sunny Side Of The Street
EXTD=
EXTT0=
EXTT1=
EXTT2=
EXTT3=
EXTT4=
EXTT5=
EXTT6=
EXTT7=
EXTT8=
EXTT9=
EXTT10=
PLAYORDER=
